Coordinates
version=1
nRows=13
nColumns=22
inDegrees=yes

Units are S.I. units (second, meters, Newtons, ...)
If the header above contains a line with 'inDegrees', this indicates whether rotational values are in degrees (yes) or radians (no).

endheader
time	pelvis_tilt	pelvis_list	pelvis_rotation	pelvis_tx	pelvis_ty	pelvis_tz	hip_flexion_r	hip_adduction_r	hip_rotation_r	knee_angle_r	ankle_angle_r	subtalar_angle_r	hip_flexion_l	hip_adduction_l	hip_rotation_l	knee_angle_l	ankle_angle_l	subtalar_angle_l	lumbar_extension	lumbar_bending	lumbar_rotation
      3.37000000	     -8.27655944	      2.18708556	    -47.24663612	      0.13684386	      0.86910713	      0.31740961	     11.75289905	     -2.48806578	      3.78922541	    -60.63017871	     -3.72396670	      6.12363463	     22.98601732	     -3.24764855	      0.79779611	    -28.77965545	     16.59542761	     -2.90571345	      2.11103101	      2.95191941	     16.93982224
      3.38000000	     -8.32138358	      1.95832678	    -46.71695265	      0.14253627	      0.87046156	      0.31956269	     12.99950879	     -2.10551190	      3.22033075	    -61.62707782	     -2.37267960	      6.00605592	     22.17008853	     -3.15458692	      1.09687671	    -28.12369588	     16.66292037	     -2.85434703	      1.96745589	      3.19334983	     16.27978563
      3.39000000	     -8.36827485	      1.75906607	    -46.18293616	      0.14815562	      0.87173072	      0.32171190	     14.26692036	     -1.76395521	      2.63156927	    -62.48828228	     -1.21720498	      5.97970811	     21.36239324	     -3.05987581	      1.41028542	    -27.42580166	     16.70031585	     -2.75334057	      1.86399294	      3.40925210	     15.65889174
      3.40000000	     -8.40140022	      1.57608889	    -45.65618360	      0.15368458	      0.87293100	      0.32386844	     15.52552394	     -1.45630313	      2.05549976	    -63.20557221	     -0.19911265	      6.05087479	     20.55329884	     -2.96888520	      1.69516155	    -26.71356642	     16.72445544	     -2.61168945	      1.76850124	      3.59794018	     15.06309236
      3.41000000	     -8.42200676	      1.41399762	    -45.13209106	      0.15914347	      0.87405115	      0.32603517	     16.77442406	     -1.18935544	      1.49139018	    -63.77698339	      0.69736375	      6.19807140	     19.74461179	     -2.87276056	      1.97109719	    -25.98396628	     16.73400695	     -2.42149203	      1.68846861	      3.75587358	     14.48463401
      3.42000000	     -8.43490332	      1.26973795	    -44.61805101	      0.16449791	      0.87509743	      0.32820146	     18.01026811	     -0.95153757	      0.95821372	    -64.19010092	      1.48633387	      6.43435648	     18.93671923	     -2.77724323	      2.24600944	    -25.23145858	     16.73731703	     -2.15144337	      1.61487434	      3.88807597	     13.93597266
      3.43000000	     -8.42779215	      1.12142931	    -44.10467373	      0.16980274	      0.87608148	      0.33039540	     19.18611440	     -0.74311116	      0.43628928	    -64.43332591	      2.26837988	      6.56996110	     18.12264507	     -2.68955090	      2.47580417	    -24.49994019	     16.74419981	     -1.99081377	      1.52789302	      4.00222240	     13.39898489
      3.44000000	     -8.41384560	      0.98663744	    -43.58857902	      0.17503553	      0.87698642	      0.33258137	     20.33120173	     -0.56159364	     -0.05248044	    -64.51039302	      2.95887829	      6.71347298	     17.31013291	     -2.59401245	      2.73823698	    -23.75481306	     16.74680526	     -1.82128604	      1.44623117	      4.09453738	     12.87355208
      3.45000000	     -8.39304373	      0.85496273	    -43.07377658	      0.18018827	      0.87781750	      0.33477032	     21.42891286	     -0.39663442	     -0.50242915	    -64.41625214	      3.58729385	      6.85575961	     16.50210352	     -2.50151029	      3.01490361	    -23.01852053	     16.75104786	     -1.66952511	      1.35883041	      4.17113575	     12.35572007
      3.46000000	     -8.36217166	      0.72455105	    -42.55593915	      0.18527629	      0.87858357	      0.33695814	     22.46718649	     -0.24598248	     -0.90236352	    -64.14753799	      4.14947658	      7.00920836	     15.69503566	     -2.40811708	      3.31433780	    -22.29349808	     16.75634962	     -1.53850233	      1.26095072	      4.23443913	     11.83480645
      3.47000000	     -8.32467707	      0.59310532	    -42.04305338	      0.19029944	      0.87928670	      0.33916459	     23.44245023	     -0.10080683	     -1.24280882	    -63.70697660	      4.65598468	      7.17179980	     14.88730788	     -2.32183734	      3.63111292	    -21.57915455	     16.76270757	     -1.44048002	      1.15570112	      4.28767255	     11.32992246
      3.48000000	     -8.28003281	      0.46292058	    -41.53406952	      0.19527128	      0.87992743	      0.34138985	     24.35192193	      0.03373847	     -1.52289059	    -63.10052007	      5.11633067	      7.33322609	     14.08043384	     -2.24162081	      3.95981082	    -20.87688384	     16.76341377	     -1.37605208	      1.04387355	      4.33191599	     10.83994036
      3.49000000	     -8.23137383	      0.33896163	    -41.03711513	      0.20018775	      0.88050454	      0.34365428	     25.20077524	      0.16398804	     -1.72459492	    -62.33470961	      5.53965857	      7.48726406	     13.27293804	     -2.16872465	      4.29633007	    -20.17560346	     16.75728855	     -1.33320831	      0.93315381	      4.36597782	     10.37583474
